<svg id="Layer_1" data-name="Layer 1" xmlns="http://www.w3.org/2000/svg" viewBox="0 0 366.43 364.36"><defs><style>.cls-1,.cls-2{fill:none;stroke:#fff;stroke-miterlimit:10;stroke-width:4.73px;}.cls-2{stroke-dasharray:9.55 9.55;}.cls-3{fill:#fff;}</style></defs><title>logomark</title><path class="cls-1" d="M260.24,288.34c-1.27.93-2.55,1.85-3.85,2.74"/><path class="cls-2" d="M248.32,296.2a133.86,133.86,0,1,1,5.24-228"/><path class="cls-1" d="M257.51,70.88c1.3.9,2.57,1.83,3.83,2.78"/><polygon class="cls-3" points="238.74 275.11 284.8 264.87 270.64 309.88 238.74 275.11"/><path class="cls-3" d="M120.63,155.58a53.65,53.65,0,0,0-8.71,6.87,28.3,28.3,0,0,0-6.3,8.94c-3,6.77-1.75,14.54.38,21.36a19.72,19.72,0,0,0,6.09,8.62,26.23,26.23,0,0,0,9.56,4.74,51.26,51.26,0,0,0,21.61.67,58.31,58.31,0,0,0,20.31-7.52,105,105,0,0,0,17.33-13.45c5.45-5,10.7-10.28,16.49-15.1s12.27-9.14,19.68-11.4a42.68,42.68,0,0,1,11.38-1.88,57.2,57.2,0,0,1,11.4.9,47.22,47.22,0,0,1,11,3.35,35.42,35.42,0,0,1,9.69,6.32,26.23,26.23,0,0,1,6.64,9.6,24.55,24.55,0,0,1,1.45,5.71,20.6,20.6,0,0,1-.06,5.92A26.06,26.06,0,0,1,264.12,200a33.28,33.28,0,0,1-8.1,8.13,38.68,38.68,0,0,1-21.39,7.08A41.32,41.32,0,0,1,223.38,214a48.1,48.1,0,0,1-5.39-1.69,33.73,33.73,0,0,1-5.1-2.46,83.88,83.88,0,0,1-9.24-6.34c-2.94-2.29-5.78-4.69-8.56-7.16s-5.49-5-8.13-7.64-5.25-5.27-7.68-8.08a206.85,206.85,0,0,0,16.22,15.25c2.82,2.4,5.71,4.73,8.68,6.94a84.64,84.64,0,0,0,9.26,6.06,32.59,32.59,0,0,0,5,2.26,47.15,47.15,0,0,0,5.29,1.46,42.33,42.33,0,0,0,10.87.91,36.79,36.79,0,0,0,20.17-7.12,31,31,0,0,0,7.39-7.73,23.53,23.53,0,0,0,3.82-9.77,20.41,20.41,0,0,0-1.36-10.23,23.42,23.42,0,0,0-6-8.5,32.13,32.13,0,0,0-9-5.7,45.33,45.33,0,0,0-10.3-3.09,54.07,54.07,0,0,0-10.77-.81A39.25,39.25,0,0,0,218,162.3c-6.84,2.13-13,6.15-18.63,10.8S188.47,183,182.94,188A106.33,106.33,0,0,1,165,201.69a59.07,59.07,0,0,1-21.34,7.56,62.23,62.23,0,0,1-11.33.62,45.85,45.85,0,0,1-11.25-1.79,28.17,28.17,0,0,1-10.15-5.31,21.45,21.45,0,0,1-6.42-9.49c-.14-.46-.3-.91-.43-1.37l-.33-1.4c-.2-.93-.36-1.84-.51-2.77a40.84,40.84,0,0,1-.57-5.63,27.63,27.63,0,0,1,.43-5.67,23.81,23.81,0,0,1,1.74-5.4,29,29,0,0,1,6.75-8.95A53.9,53.9,0,0,1,120.63,155.58Z"/></svg>