<svg id="Layer_1" data-name="Layer 1" xmlns="http://www.w3.org/2000/svg" viewBox="0 0 1080 364.36"><defs><style>.cls-1,.cls-2{fill:none;stroke:#fff;stroke-miterlimit:10;stroke-width:3.31px;}.cls-2{stroke-dasharray:6.67 6.67;}.cls-3,.cls-4,.cls-5{fill:#fff;}.cls-4{font-size:68.31px;font-family:Poppins-Bold, Poppins;font-weight:700;letter-spacing:0.17em;}.cls-5{font-size:48.48px;font-family:AelHandwriting-Regular, Ael Handwriting;letter-spacing:0.2em;}</style></defs><title>logo-full</title><path class="cls-1" d="M202.44,241.33c-.88.65-1.78,1.29-2.69,1.91"/><path class="cls-2" d="M194.12,246.81a93.49,93.49,0,1,1,3.64-159.24"/><path class="cls-1" d="M200.54,89.44c.9.64,1.79,1.28,2.67,2"/><polygon class="cls-3" points="187.42 232.09 219.59 224.94 209.7 256.38 187.42 232.09"/><path class="cls-3" d="M104.93,148.6a37.66,37.66,0,0,0-6.08,4.8,19.71,19.71,0,0,0-4.4,6.25c-2.08,4.72-1.23,10.15.26,14.91a13.72,13.72,0,0,0,4.25,6,18.3,18.3,0,0,0,6.68,3.32,35.85,35.85,0,0,0,15.09.46,41,41,0,0,0,14.2-5.23,72.76,72.76,0,0,0,12.12-9.38c3.8-3.49,7.46-7.19,11.5-10.56a40.11,40.11,0,0,1,13.73-8,29.85,29.85,0,0,1,7.95-1.31,39.39,39.39,0,0,1,8,.62,28.62,28.62,0,0,1,14.43,6.76,18.32,18.32,0,0,1,4.64,6.7,16.06,16.06,0,0,1,1,8.12,18.28,18.28,0,0,1-3.09,7.5,23.85,23.85,0,0,1-5.65,5.69,27.22,27.22,0,0,1-14.95,4.94,29.18,29.18,0,0,1-7.85-.86,26.81,26.81,0,0,1-7.33-2.89,81.24,81.24,0,0,1-12.44-9.43q-2.91-2.6-5.67-5.33c-1.84-1.84-3.67-3.68-5.37-5.65a146.07,146.07,0,0,0,11.33,10.65,80.89,80.89,0,0,0,12.53,9.08,25,25,0,0,0,7.17,2.6,30.28,30.28,0,0,0,7.59.63,25.74,25.74,0,0,0,14.09-5c4-3,7.15-7.35,7.83-12.22a14.37,14.37,0,0,0-1-7.15,16.42,16.42,0,0,0-4.21-5.94,27.06,27.06,0,0,0-13.45-6.13,38,38,0,0,0-7.53-.57,28.29,28.29,0,0,0-7.36,1.24,39.62,39.62,0,0,0-13,7.54c-3.95,3.25-7.62,6.91-11.49,10.42a74.17,74.17,0,0,1-12.52,9.54,41,41,0,0,1-14.9,5.3,37.29,37.29,0,0,1-15.76-.82,19.53,19.53,0,0,1-7.09-3.71,14.92,14.92,0,0,1-4.49-6.63,23.26,23.26,0,0,1-.89-3.87,28.59,28.59,0,0,1-.39-3.93,17.13,17.13,0,0,1,1.51-7.73,20.31,20.31,0,0,1,4.72-6.25A38.07,38.07,0,0,1,104.93,148.6Z"/><text class="cls-4" transform="translate(227.7 180.59)">RUNWAYS AGENCY</text><text class="cls-5" transform="translate(324.66 241.39)">Where Style Takes Flight</text></svg>